# xmcd
#
# Track frame offsets: 
#        150
#        19552
#        35392
#        53729
#        72129
#        94363
#        116293
#        130582
#        155485
#        174566
#        191966
#        217139
#        238979
#        257740
#        280417
#        300302
#        324602
#        341266
#
# Disc length: 4757 seconds
#
# Revision: 0
# Processed by: cddbd v1.5.2PL0 Copyright (c) Steve Scherf et al.
# Submitted via: ExactAudioCopy v1.3
#
DISCID=02129312
DTITLE=Various Artist - Akella Presents - vol. 174 - Blues-Rock (men 
DTITLE=+ women)  CD2
DYEAR=2019
DGENRE=Blues
TTITLE0=Soul Return - You're Leavin' Me
TTITLE1=Carson Cole - Small Town Girls
TTITLE2=Nikki Lamborn - Baby Please Don't Go
TTITLE3=Blindside Thunder - Take My Breath Away
TTITLE4=Layla Zoe - Gemini
TTITLE5=The BigBlue - Walking Blues
TTITLE6=Amanda Fish - 2020
TTITLE7=Mike Zito - Old Black Graveyard
TTITLE8=Jail Job Eve - Run Like Hell
TTITLE9=Wily Bo Walker - What You Gonna Do
TTITLE10=Hurricane Ruth - Evil
TTITLE11=Juniper Inc. - I'm Bad, I'm Nationwide
TTITLE12=Lee Aaron - Cut Way Back
TTITLE13=Peo - Chains
TTITLE14=Amy Douglas and Feints - Dirty Whisky
TTITLE15=Dolls Raiders - Real Love
TTITLE16=Beth Hart - Addicted
TTITLE17=Krissy Matthews - Paranoid Prison
EXTD=
EXTT0=
EXTT1=
EXTT2=
EXTT3=
EXTT4=
EXTT5=
EXTT6=
EXTT7=
EXTT8=
EXTT9=
EXTT10=
EXTT11=
EXTT12=
EXTT13=
EXTT14=
EXTT15=
EXTT16=
EXTT17=
PLAYORDER=
